<svg xmlns="http://www.w3.org/2000/svg" viewBox="0 0 1024 1024" role="img" aria-labelledby="title description">
  <title id="title">Chat Tabs Organizer logo</title>
  <desc id="description">A dark chat window with green Guild, blue Group, pink Whispers, and yellow Say tabs and messages.</desc>

  <rect width="1024" height="1024" rx="170" fill="#10151d"/>
  <rect x="34" y="34" width="956" height="956" rx="142" fill="#181f29" stroke="#68727e" stroke-width="18"/>

  <g stroke="#10151d" stroke-width="16" stroke-linejoin="round">
    <path d="M86 244V160c0-30 24-54 54-54h152c30 0 54 24 54 54v84Z" fill="#38c968"/>
    <path d="M324 244V136c0-30 24-54 54-54h152c30 0 54 24 54 54v108Z" fill="#4b9eff"/>
    <path d="M562 244V160c0-30 24-54 54-54h174c30 0 54 24 54 54v84Z" fill="#ef72b4"/>
    <path d="M822 244V176c0-30 24-54 54-54h18c30 0 54 24 54 54v68Z" fill="#f2c83b"/>
  </g>

  <g fill="#10151d" font-family="Arial, sans-serif" font-weight="700" text-anchor="middle">
    <text x="216" y="186" font-size="42">GUILD</text>
    <text x="454" y="172" font-size="40">GROUP</text>
    <text x="703" y="186" font-size="34">WHISPERS</text>
    <text x="884" y="196" font-size="36">SAY</text>
  </g>

  <rect x="70" y="224" width="884" height="704" rx="66" fill="#d9dde1" stroke="#10151d" stroke-width="18"/>
  <rect x="94" y="248" width="836" height="656" rx="44" fill="#2c2934"/>
  <path d="M94 310h836" fill="none" stroke="#68727e" stroke-width="12"/>

  <g fill="#a6afb8">
    <rect x="126" y="270" width="34" height="16" rx="8"/>
    <rect x="174" y="270" width="34" height="16" rx="8"/>
    <rect x="222" y="270" width="34" height="16" rx="8"/>
  </g>

  <g font-family="Arial, sans-serif" font-weight="700">
    <g transform="translate(0 0)">
      <path d="M126 360c0-14 11-25 25-25h58c14 0 25 11 25 25v46c0 14-11 25-25 25h-26l-28 23 7-23h-11c-14 0-25-11-25-25Z" fill="#38c968"/>
      <rect x="274" y="344" width="170" height="48" rx="24" fill="#38c968"/>
      <text x="359" y="378" fill="#10151d" font-size="30" text-anchor="middle">GUILD</text>
      <rect x="466" y="350" width="366" height="22" rx="11" fill="#f4f5f6"/>
      <rect x="274" y="410" width="510" height="20" rx="10" fill="#9aa4ae"/>
    </g>

    <g transform="translate(0 132)">
      <path d="M126 360c0-14 11-25 25-25h58c14 0 25 11 25 25v46c0 14-11 25-25 25h-26l-28 23 7-23h-11c-14 0-25-11-25-25Z" fill="#4b9eff"/>
      <rect x="274" y="344" width="170" height="48" rx="24" fill="#4b9eff"/>
      <text x="359" y="378" fill="#10151d" font-size="30" text-anchor="middle">GROUP</text>
      <rect x="466" y="350" width="300" height="22" rx="11" fill="#f4f5f6"/>
      <rect x="274" y="410" width="438" height="20" rx="10" fill="#9aa4ae"/>
    </g>

    <g transform="translate(0 264)">
      <path d="M126 360c0-14 11-25 25-25h58c14 0 25 11 25 25v46c0 14-11 25-25 25h-26l-28 23 7-23h-11c-14 0-25-11-25-25Z" fill="#ef72b4"/>
      <rect x="274" y="344" width="194" height="48" rx="24" fill="#ef72b4"/>
      <text x="371" y="378" fill="#10151d" font-size="27" text-anchor="middle">WHISPER</text>
      <rect x="490" y="350" width="342" height="22" rx="11" fill="#f4f5f6"/>
      <rect x="274" y="410" width="476" height="20" rx="10" fill="#9aa4ae"/>
    </g>

    <g transform="translate(0 396)">
      <path d="M126 360c0-14 11-25 25-25h58c14 0 25 11 25 25v46c0 14-11 25-25 25h-26l-28 23 7-23h-11c-14 0-25-11-25-25Z" fill="#f2c83b"/>
      <rect x="274" y="344" width="136" height="48" rx="24" fill="#f2c83b"/>
      <text x="342" y="378" fill="#10151d" font-size="30" text-anchor="middle">SAY</text>
      <rect x="432" y="350" width="400" height="22" rx="11" fill="#f4f5f6"/>
      <rect x="274" y="410" width="536" height="20" rx="10" fill="#9aa4ae"/>
    </g>
  </g>
</svg>
